<svg xmlns="http://www.w3.org/2000/svg" aria-hidden="true">
  <symbol id="icon-menu" viewBox="0 0 32 32">
    <line x1="2" y1="16" x2="30" y2="16" fill="none" stroke="currentColor" stroke-linecap="square" stroke-miterlimit="10" stroke-width="2" data-color="color-2"></line>
    <line x1="2" y1="7" x2="30" y2="7" fill="none" stroke="currentColor" stroke-linecap="square" stroke-miterlimit="10" stroke-width="2"></line>
    <line x1="2" y1="25" x2="30" y2="25" fill="none" stroke="currentColor" stroke-linecap="square" stroke-miterlimit="10" stroke-width="2"></line>
  </symbol>
  <symbol id="icon-bookmark" viewBox="0 0 24 24">
    <path d="m20,22l-8-5-8,5V4c0-1.105.895-2,2-2h12c1.105,0,2,.895,2,2v18Z" fill="none" stroke="currentColor" stroke-linecap="square" stroke-miterlimit="10" stroke-width="2"></path>
  </symbol>
  <symbol id="icon-shield-check" viewBox="0 0 18 18">
    <path d="M9.305 1.848L14.555 3.528C14.969 3.661 15.25 4.046 15.25 4.48V11C15.25 14.03 10.566 15.748 9.308 16.155C9.105 16.221 8.895 16.221 8.692 16.155C7.434 15.748 2.75 14.03 2.75 11V4.48C2.75 4.045 3.031 3.66 3.445 3.528L8.695 1.848C8.893 1.785 9.106 1.785 9.305 1.848Z" fill="currentColor" fill-opacity="0.3" data-color="color-2" data-stroke="none"></path>
    <path d="M9.305 1.848L14.555 3.528C14.969 3.661 15.25 4.046 15.25 4.48V11C15.25 14.03 10.566 15.748 9.308 16.155C9.105 16.221 8.895 16.221 8.692 16.155C7.434 15.748 2.75 14.03 2.75 11V4.48C2.75 4.045 3.031 3.66 3.445 3.528L8.695 1.848C8.893 1.785 9.106 1.785 9.305 1.848Z" stroke="currentColor" stroke-width="1.5" stroke-linecap="round" stroke-linejoin="round" fill="none"></path>
    <path d="M6.49701 9.75L8.10601 11.25L11.503 6.75" stroke="currentColor" stroke-width="1.5" stroke-linecap="round" stroke-linejoin="round" fill="none"></path>
  </symbol>
  <symbol id="icon-check" viewBox="0 0 32 32">
    <polyline points="3 17 11 26 29 6" fill="none" stroke="currentColor" stroke-linecap="square" stroke-miterlimit="10" stroke-width="4"></polyline>
  </symbol>
  <symbol id="icon-warning" viewBox="0 0 48 48">
    <path d="M20.1049 7.15552L3.60955 34.5335C1.87754 37.4075 4.04293 41 7.50544 41H40.4946C43.9571 41 46.1225 37.4075 44.3905 34.5335L27.8966 7.15552C26.1646 4.28149 21.8369 4.28149 20.1049 7.15552Z" stroke="currentColor" stroke-width="4" stroke-miterlimit="10" stroke-linecap="square" fill="none"></path>
    <path d="M24 15V27" stroke="currentColor" stroke-width="4" stroke-miterlimit="10" stroke-linecap="square" data-color="color-2" fill="none"></path>
    <path d="M24 34C24.5523 34 25 33.5523 25 33C25 32.4477 24.5523 32 24 32C23.4477 32 23 32.4477 23 33C23 33.5523 23.4477 34 24 34Z" fill="currentColor" stroke="currentColor" stroke-width="4" stroke-miterlimit="10" stroke-linecap="square" data-color="color-2"></path>
  </symbol>
  <symbol id="icon-error" viewBox="0 0 48 48">
    <path d="M39 9L9 39" stroke="currentColor" stroke-width="4" stroke-miterlimit="10" stroke-linecap="square" data-color="color-2" fill="none"></path>
    <path d="M39 39L9 9" stroke="currentColor" stroke-width="4" stroke-miterlimit="10" stroke-linecap="square" fill="none"></path>
  </symbol>
  <symbol id="icon-plus" viewBox="0 0 24 24">
    <path d="M12 4v16m8-8H4" stroke="currentColor" stroke-width="2" fill="none"></path>
  </symbol>
  <symbol id="icon-arrow-left" viewBox="0 0 20 20">
    <path d="M13 4l-6 6 6 6" fill="none" stroke="currentColor" stroke-width="1.8" stroke-linecap="round" stroke-linejoin="round"></path>
  </symbol>
  <symbol id="icon-arrow-right" viewBox="0 0 20 20">
    <path d="M7 4l6 6-6 6" fill="none" stroke="currentColor" stroke-width="1.8" stroke-linecap="round" stroke-linejoin="round"></path>
  </symbol>
  <symbol id="icon-like" viewBox="0 0 48 48">
    <g data-transform-wrapper="on">
      <path d="M14.6459 16.9194C14.7329 16.4489 14.9081 15.9988 15.1642 15.5946C15.951 14.3526 16.7918 13.1328 17.6141 11.9475L17.8532 11.603C19.9259 8.61717 21.8309 5.87284 22.7392 3.34714C23.0983 2.34841 24.1873 1.74615 25.2589 2.10403C28.4977 3.18567 30.4166 6.76112 29.3829 10.1197L27.3471 16.7365H39.3282C41.5585 16.7365 43.6577 18.3225 43.9561 20.6557C44.1004 21.7841 43.8138 22.8407 43.2493 23.693C44.3066 24.5107 44.9932 25.787 44.9932 27.2365C44.9932 28.9956 43.9834 30.5014 42.5205 31.2376C42.8215 31.8377 42.9932 32.5157 42.9932 33.2365C42.9932 34.9331 42.0549 36.405 40.6714 37.171C40.8479 37.5819 40.9581 38.029 40.9864 38.4995L40.9864 38.5006C41.128 40.8984 39.044 42.7365 36.8042 42.7365H24.9932C20.8644 42.7365 17.7171 41.9555 15.5855 41.1611C15.3479 41.0725 14.9237 40.9508 14.5111 40.8298C13.1194 32.825 13.1644 24.9314 14.6459 16.9194Z" fill="currentColor"></path>
      <path d="M12.0119 43.7366H7.46274C6.16545 43.7366 4.97062 42.9005 4.59246 41.616C2.47945 34.4394 2.45894 27.1074 4.59245 19.8582C4.97037 18.5745 6.16463 17.7366 7.46274 17.7366H11.4571C10.0171 26.4299 10.202 35.0157 12.0119 43.7366Z" fill="currentColor" data-color="color-2"></path>
    </g>
  </symbol>
  <symbol id="icon-dislike" viewBox="0 0 48 48">
    <g data-transform-wrapper="on" transform="rotate(180, 24, 24)">
      <path d="M14.6459 16.9194C14.7329 16.4489 14.9081 15.9988 15.1642 15.5946C15.951 14.3526 16.7918 13.1328 17.6141 11.9475L17.8532 11.603C19.9259 8.61717 21.8309 5.87284 22.7392 3.34714C23.0983 2.34841 24.1873 1.74615 25.2589 2.10403C28.4977 3.18567 30.4166 6.76112 29.3829 10.1197L27.3471 16.7365H39.3282C41.5585 16.7365 43.6577 18.3225 43.9561 20.6557C44.1004 21.7841 43.8138 22.8407 43.2493 23.693C44.3066 24.5107 44.9932 25.787 44.9932 27.2365C44.9932 28.9956 43.9834 30.5014 42.5205 31.2376C42.8215 31.8377 42.9932 32.5157 42.9932 33.2365C42.9932 34.9331 42.0549 36.405 40.6714 37.171C40.8479 37.5819 40.9581 38.029 40.9864 38.4995L40.9864 38.5006C41.128 40.8984 39.044 42.7365 36.8042 42.7365H24.9932C20.8644 42.7365 17.7171 41.9555 15.5855 41.1611C15.3479 41.0725 14.9237 40.9508 14.5111 40.8298C13.1194 32.825 13.1644 24.9314 14.6459 16.9194Z" fill="currentColor"></path>
      <path d="M12.0119 43.7366H7.46274C6.16545 43.7366 4.97062 42.9005 4.59246 41.616C2.47945 34.4394 2.45894 27.1074 4.59245 19.8582C4.97037 18.5745 6.16463 17.7366 7.46274 17.7366H11.4571C10.0171 26.4299 10.202 35.0157 12.0119 43.7366Z" fill="currentColor" data-color="color-2"></path>
    </g>
  </symbol>
  <symbol id="icon-comment" viewBox="0 0 24 24">
    <path d="m20,3H4c-1.105,0-2,.895-2,2v11c0,1.105.895,2,2,2h5l3,4,3-4h5c1.105,0,2-.895,2-2V5c0-1.105-.895-2-2-2Z" fill="none" stroke="currentColor" stroke-linecap="square" stroke-miterlimit="10" stroke-width="2"></path>
  </symbol>
  <symbol id="icon-whatsapp" viewBox="0 0 32 32">
    <path d="M25.873,6.069c-2.619-2.623-6.103-4.067-9.814-4.069C8.411,2,2.186,8.224,2.184,15.874c-.001,2.446,.638,4.833,1.852,6.936l-1.969,7.19,7.355-1.929c2.026,1.106,4.308,1.688,6.63,1.689h.006c7.647,0,13.872-6.224,13.874-13.874,.001-3.708-1.44-7.193-4.06-9.815h0Zm-9.814,21.347h-.005c-2.069,0-4.099-.557-5.87-1.607l-.421-.25-4.365,1.145,1.165-4.256-.274-.436c-1.154-1.836-1.764-3.958-1.763-6.137,.003-6.358,5.176-11.531,11.537-11.531,3.08,.001,5.975,1.202,8.153,3.382,2.177,2.179,3.376,5.077,3.374,8.158-.003,6.359-5.176,11.532-11.532,11.532h0Zm6.325-8.636c-.347-.174-2.051-1.012-2.369-1.128-.318-.116-.549-.174-.78,.174-.231,.347-.895,1.128-1.098,1.359-.202,.232-.405,.26-.751,.086-.347-.174-1.464-.54-2.788-1.72-1.03-.919-1.726-2.054-1.929-2.402-.202-.347-.021-.535,.152-.707,.156-.156,.347-.405,.52-.607,.174-.202,.231-.347,.347-.578,.116-.232,.058-.434-.029-.607-.087-.174-.78-1.88-1.069-2.574-.281-.676-.567-.584-.78-.595-.202-.01-.433-.012-.665-.012s-.607,.086-.925,.434c-.318,.347-1.213,1.186-1.213,2.892s1.242,3.355,1.416,3.587c.174,.232,2.445,3.733,5.922,5.235,.827,.357,1.473,.571,1.977,.73,.83,.264,1.586,.227,2.183,.138,.666-.1,2.051-.839,2.34-1.649,.289-.81,.289-1.504,.202-1.649s-.318-.232-.665-.405h0Z" fill-rule="evenodd" fill="currentColor"></path>
  </symbol>
  <symbol id="icon-x" viewBox="0 0 32 32">
    <path d="M18.42,14.009L27.891,3h-2.244l-8.224,9.559L10.855,3H3.28l9.932,14.455L3.28,29h2.244l8.684-10.095,6.936,10.095h7.576l-10.301-14.991h0Zm-3.074,3.573l-1.006-1.439L6.333,4.69h3.447l6.462,9.243,1.006,1.439,8.4,12.015h-3.447l-6.854-9.804h0Z" fill="currentColor"></path>
  </symbol>
  <symbol id="icon-linkedin" viewBox="0 0 32 32">
    <path d="M26.111,3H5.889c-1.595,0-2.889,1.293-2.889,2.889V26.111c0,1.595,1.293,2.889,2.889,2.889H26.111c1.595,0,2.889-1.293,2.889-2.889V5.889c0-1.595-1.293-2.889-2.889-2.889ZM10.861,25.389h-3.877V12.87h3.877v12.519Zm-1.957-14.158c-1.267,0-2.293-1.034-2.293-2.31s1.026-2.31,2.293-2.31,2.292,1.034,2.292,2.31-1.026,2.31-2.292,2.31Zm16.485,14.158h-3.858v-6.571c0-1.802-.685-2.809-2.111-2.809-1.551,0-2.362,1.048-2.362,2.809v6.571h-3.718V12.87h3.718v1.686s1.118-2.069,3.775-2.069,4.556,1.621,4.556,4.975v7.926Z" fill-rule="evenodd" fill="currentColor"></path>
  </symbol>
  <symbol id="icon-facebook" viewBox="0 0 32 32">
    <path d="M16,2c-7.732,0-14,6.268-14,14,0,6.566,4.52,12.075,10.618,13.588v-9.31h-2.887v-4.278h2.887v-1.843c0-4.765,2.156-6.974,6.835-6.974,.887,0,2.417,.174,3.043,.348v3.878c-.33-.035-.904-.052-1.617-.052-2.296,0-3.183,.87-3.183,3.13v1.513h4.573l-.786,4.278h-3.787v9.619c6.932-.837,12.304-6.74,12.304-13.897,0-7.732-6.268-14-14-14Z" fill="currentColor"></path>
  </symbol>
  <symbol id="icon-copy" viewBox="0 0 20 20">
    <g data-transform-wrapper="on">
      <path d="m13,7h2c1.105,0,2,.895,2,2v6c0,1.105-.895,2-2,2h-6c-1.105,0-2-.895-2-2v-2" fill="none" stroke="currentColor" stroke-linecap="round" stroke-linejoin="round" stroke-width="2" data-color="color-2"></path>
      <rect x="3" y="3" width="10" height="10" rx="2" ry="2" stroke="currentColor" stroke-linecap="round" stroke-linejoin="round" stroke-width="2" fill="currentColor"></rect>
    </g>
  </symbol>
  <symbol id="icon-category" viewBox="0 0 18 18">
    <path fill-rule="evenodd" clip-rule="evenodd" d="M15.298 7C16.7769 7 17.8526 8.40119 17.4717 9.82923L16.3708 13.9578C16.0503 15.1626 14.9597 16 13.714 16H4.28698C3.04143 16 1.95093 15.1628 1.63032 13.9582L0.529335 9.82933C0.148492 8.40165 1.22442 7.00141 2.70077 7L15.298 7Z" fill="currentColor" fill-opacity="0.4" data-color="color-2"></path>
    <path d="M4.25 2C2.73079 2 1.5 3.23079 1.5 4.75V7.34742C1.8441 7.12889 2.25411 7.00043 2.70077 7L15.298 7C15.7452 7 16.1556 7.12816 16.5 7.34646V6.25C16.5 4.73079 15.2692 3.5 13.75 3.5H8.72395L8.34568 3.02826C7.82345 2.37824 7.0355 2 6.20099 2H4.25Z" fill="currentColor"></path>
  </symbol>
  <symbol id="icon-tag" viewBox="0 0 18 18">
    <path d="M14.3662 9.80569L8.57321 4.0127C8.24311 3.6821 7.80371 3.5 7.33591 3.5H2.75C1.7852 3.5 1 4.2852 1 5.25V9.83591C1 10.3032 1.1816 10.7426 1.5127 11.0732L7.30569 16.8662C7.84179 17.4023 8.5459 17.6699 9.25 17.6699C9.9541 17.6699 10.6582 17.4018 11.1943 16.8662L14.3662 13.6943C14.8857 13.1753 15.1719 12.4848 15.1719 11.75C15.1719 11.0152 14.8858 10.3247 14.3662 9.80569Z" fill="currentColor" fill-opacity="0.4" data-color="color-2"></path>
    <path d="M10.0732 1.0127L15.8662 6.80569C16.3858 7.32469 16.6718 8.0152 16.6718 8.75C16.6718 9.4848 16.3856 10.1753 15.8661 10.6943L15.1511 11.4093C15.0768 10.8036 14.8046 10.2436 14.3662 9.80569L8.57321 4.0127C8.24311 3.6821 7.80371 3.5 7.33591 3.5H2.75C2.66514 3.5 2.58167 3.50607 2.5 3.51781V2.25C2.5 1.2852 3.2852 0.5 4.25 0.5H8.83591C9.30371 0.5 9.74311 0.682095 10.0732 1.0127Z" fill="currentColor"></path>
    <path d="M4 7.75C4 8.4404 4.5596 9 5.25 9C5.9404 9 6.5 8.4404 6.5 7.75C6.5 7.0596 5.9404 6.5 5.25 6.5C4.5596 6.5 4 7.0596 4 7.75Z" fill="currentColor"></path>
  </symbol>
  <symbol id="icon-series" viewBox="0 0 18 18">
    <path fill-rule="evenodd" clip-rule="evenodd" d="M2 7.25C2 5.73128 3.23069 4.5 4.75 4.5H13.25C14.7693 4.5 16 5.73128 16 7.25V13.25C16 14.7687 14.7693 16 13.25 16H4.75C3.23069 16 2 14.7687 2 13.25V7.25Z" fill="currentColor" fill-opacity="0.4" data-color="color-2"></path>
    <path fill-rule="evenodd" clip-rule="evenodd" d="M4.5 12.75C4.5 12.3358 4.83579 12 5.25 12H7.25C7.66421 12 8 12.3358 8 12.75C8 13.1642 7.66421 13.5 7.25 13.5H5.25C4.83579 13.5 4.5 13.1642 4.5 12.75Z" fill="currentColor"></path>
    <path d="M15.6445 5.89654C15.1723 5.06272 14.2771 4.5 13.25 4.5H4.75C3.71996 4.5 2.82259 5.06594 2.35143 5.9037L3.77709 3.0288C4.24151 2.09309 5.1956 1.5 6.241 1.5H11.759C12.8044 1.5 13.7584 2.09285 14.2228 3.02856L15.6445 5.89654Z" fill="currentColor"></path>
    <path fill-rule="evenodd" clip-rule="evenodd" d="M9.00002 3.5C9.41423 3.5 9.75002 3.83579 9.75002 4.25V7.25C9.75002 7.66421 9.41423 8 9.00002 8C8.5858 8 8.25002 7.66421 8.25002 7.25V4.25C8.25002 3.83579 8.5858 3.5 9.00002 3.5Z" fill="currentColor"></path>
  </symbol>
  <symbol id="icon-sun" viewBox="0 0 47.576 47.576" fill="currentColor">
    <path d="M24.235,12.13c-6.478,0-11.748,5.269-11.748,11.748s5.27,11.747,11.748,11.747s11.748-5.27,11.748-11.747
            S30.713,12.13,24.235,12.13z M24.235,33.275c-5.182,0-9.398-4.216-9.398-9.397c0-5.183,4.216-9.397,9.398-9.397
            c5.183,0,9.397,4.217,9.397,9.397C33.632,29.06,29.418,33.275,24.235,33.275z M23.06,6.485V1.589c0-0.649,0.526-1.174,1.175-1.174
            c0.648,0,1.175,0.525,1.175,1.174v4.896c0,0.648-0.528,1.175-1.175,1.175C23.586,7.66,23.06,7.133,23.06,6.485z
            M35.095,13.287c-0.459-0.458-0.459-1.202,0-1.661l4.209-4.209c0.459-0.458,1.203-0.458,1.662,0
            c0.459,0.459,0.459,1.203,0,1.661l-4.209,4.209c-0.229,0.229-0.528,0.344-0.83,0.344
            C35.627,13.631,35.326,13.516,35.095,13.287z M5.63,9.078c-0.458-0.458-0.458-1.202,0-1.661c0.459-0.458,1.203-0.458,1.661,0
            l4.21,4.209c0.458,0.459,0.458,1.204,0,1.661c-0.229,0.229-0.53,0.344-0.83,0.344c-0.301,0-0.602-0.115-0.831-0.344L5.63,9.078z
            M24.472,41.091v4.896c0,0.649-0.525,1.175-1.173,1.175c-0.649,0-1.175-0.527-1.175-1.175v-4.896
            c0-0.649,0.526-1.176,1.175-1.176C23.947,39.915,24.472,40.441,24.472,41.091z M12.437,34.288c0.459,0.458,0.459,1.202,0,1.661
            l-4.209,4.21c-0.229,0.23-0.53,0.346-0.831,0.346c-0.3,0-0.601-0.117-0.83-0.346c-0.459-0.458-0.459-1.203,0-1.662l4.209-4.209
            C11.235,33.829,11.978,33.829,12.437,34.288z M41.902,38.497c0.459,0.459,0.459,1.202,0,1.662
            c-0.229,0.23-0.527,0.346-0.83,0.346c-0.299,0-0.601-0.117-0.83-0.346l-4.209-4.21c-0.459-0.459-0.459-1.202,0-1.661
            s1.201-0.459,1.66,0L41.902,38.497z M6.461,25.054H1.175C0.526,25.054,0,24.526,0,23.878s0.526-1.176,1.175-1.176h5.286
            c0.649,0,1.175,0.527,1.175,1.176C7.635,24.526,7.11,25.052,6.461,25.054z M47.576,23.878c0,0.649-0.526,1.176-1.174,1.176h-6.267
            c-0.649,0-1.176-0.527-1.176-1.176s0.526-1.176,1.176-1.176h6.267C47.05,22.702,47.576,23.228,47.576,23.878z"></path>
  </symbol>
  <symbol id="icon-moon" viewBox="-8.13 -8.13 97.55 97.55" fill="currentColor">
    <path d="M79.248,38.668c-1.246-0.464-2.669-0.088-3.518,0.95c-4.791,5.84-11.858,9.192-19.403,9.192
            c-13.833,0-25.083-11.255-25.083-25.083c0-6.963,2.808-13.441,7.908-18.242c0.977-0.918,1.26-2.357,0.705-3.579
            c-0.552-1.222-1.818-1.959-3.157-1.826C15.778,2.112,0,19.511,0,40.555c0,22.424,18.245,40.669,40.672,40.669
            c22.16,0,40.002-17.363,40.616-39.528C81.324,40.355,80.508,39.136,79.248,38.668z M40.671,74.953
            c-18.971,0-34.402-15.43-34.402-34.4c0-14.93,9.389-27.69,22.859-32.43c-2.714,4.689-4.156,10.022-4.156,15.605
            c0,17.292,14.065,31.355,31.357,31.355c6.317,0,12.373-1.882,17.479-5.322C69.82,64.399,56.557,74.953,40.671,74.953z"></path>
  </symbol>
  <symbol id="icon-computer" viewBox="0 0 24 24" fill="none" stroke="currentColor" stroke-width="1.6">
    <rect x="3" y="4" width="18" height="13" rx="2"></rect>
    <path d="M8 21h8M12 17v4"></path>
  </symbol>
  <symbol id="icon-turkey-flag" viewBox="0 -30000 90000 60000">
    <path fill="#e30a17" d="m0-30000h90000v60000H0z"></path>
    <path fill="#fff" d="m41750 0 13568-4408-8386 11541V-7133l8386 11541zm925 8021a15000 15000 0 1 1 0-16042 12000 12000 0 1 0 0 16042z"></path>
  </symbol>
  <symbol id="icon-english-flag" viewBox="0 0 1235 650">
    <defs>
            <g id="cone">
                <polygon id="triangle" points="0,0 0,1 .5,1" transform="translate(0,-1) rotate(18)"/>
                <polygon id="use10" points="0,0 0,1 .5,1" transform="matrix(-0.9510565162951535, 0.3090169943749474, 0.3090169943749474, 0.9510565162951535, 0, -1)"/>
            </g>
            <g id="star" transform="translate(1235,1050) scale(300.3)" fill="white">
                <g id="use13">
                    <polygon points="0,0 0,1 .5,1" transform="translate(0,-1) rotate(18)"/>
                    <polygon points="0,0 0,1 .5,1" transform="matrix(-0.9510565162951535, 0.3090169943749474, 0.3090169943749474, 0.9510565162951535, 0, -1)"/>
                </g>
                <g id="use15" transform="matrix(0.30901699437494745, 0.9510565162951535, -0.9510565162951535, 0.30901699437494745, 0, 0)">
                    <polygon points="0,0 0,1 .5,1" transform="translate(0,-1) rotate(18)"/>
                    <polygon points="0,0 0,1 .5,1" transform="matrix(-0.9510565162951535, 0.3090169943749474, 0.3090169943749474, 0.9510565162951535, 0, -1)"/>
                </g>
                <g id="use17" transform="matrix(0.30901699437494745, -0.9510565162951535, 0.9510565162951535, 0.30901699437494745, 0, 0)">
                    <polygon points="0,0 0,1 .5,1" transform="translate(0,-1) rotate(18)"/>
                    <polygon points="0,0 0,1 .5,1" transform="matrix(-0.9510565162951535, 0.3090169943749474, 0.3090169943749474, 0.9510565162951535, 0, -1)"/>
                </g>
                <g id="use19" transform="matrix(-0.8090169943749473, 0.5877852522924732, -0.5877852522924732, -0.8090169943749473, 0, 0)">
                    <polygon points="0,0 0,1 .5,1" transform="translate(0,-1) rotate(18)"/>
                    <polygon points="0,0 0,1 .5,1" transform="matrix(-0.9510565162951535, 0.3090169943749474, 0.3090169943749474, 0.9510565162951535, 0, -1)"/>
                </g>
                <g id="use21" transform="matrix(-0.8090169943749473, -0.5877852522924732, 0.5877852522924732, -0.8090169943749473, 0, 0)">
                    <polygon points="0,0 0,1 .5,1" transform="translate(0,-1) rotate(18)"/>
                    <polygon points="0,0 0,1 .5,1" transform="matrix(-0.9510565162951535, 0.3090169943749474, 0.3090169943749474, 0.9510565162951535, 0, -1)"/>
                </g>
            </g>
            <g id="even_star_row">
                <g id="star 1 even row" transform="matrix(300.29998779296875, 0, 0, 300.29998779296875, 1235, 1050)" fill="white">
                    <g>
                        <polygon points="0,0 0,1 .5,1" transform="translate(0,-1) rotate(18)"/>
                        <polygon points="0,0 0,1 .5,1" transform="matrix(-0.9510565162951535, 0.3090169943749474, 0.3090169943749474, 0.9510565162951535, 0, -1)"/>
                    </g>
                    <g transform="matrix(0.30901699437494745, 0.9510565162951535, -0.9510565162951535, 0.30901699437494745, 0, 0)">
                        <polygon points="0,0 0,1 .5,1" transform="translate(0,-1) rotate(18)"/>
                        <polygon points="0,0 0,1 .5,1" transform="matrix(-0.9510565162951535, 0.3090169943749474, 0.3090169943749474, 0.9510565162951535, 0, -1)"/>
                    </g>
                    <g transform="matrix(0.30901699437494745, -0.9510565162951535, 0.9510565162951535, 0.30901699437494745, 0, 0)">
                        <polygon points="0,0 0,1 .5,1" transform="translate(0,-1) rotate(18)"/>
                        <polygon points="0,0 0,1 .5,1" transform="matrix(-0.9510565162951535, 0.3090169943749474, 0.3090169943749474, 0.9510565162951535, 0, -1)"/>
                    </g>
                    <g transform="matrix(-0.8090169943749473, 0.5877852522924732, -0.5877852522924732, -0.8090169943749473, 0, 0)">
                        <polygon points="0,0 0,1 .5,1" transform="translate(0,-1) rotate(18)"/>
                        <polygon points="0,0 0,1 .5,1" transform="matrix(-0.9510565162951535, 0.3090169943749474, 0.3090169943749474, 0.9510565162951535, 0, -1)"/>
                    </g>
                    <g transform="matrix(-0.8090169943749473, -0.5877852522924732, 0.5877852522924732, -0.8090169943749473, 0, 0)">
                        <polygon points="0,0 0,1 .5,1" transform="translate(0,-1) rotate(18)"/>
                        <polygon points="0,0 0,1 .5,1" transform="matrix(-0.9510565162951535, 0.3090169943749474, 0.3090169943749474, 0.9510565162951535, 0, -1)"/>
                    </g>
                </g>
                <g id="star 2 even row" transform="matrix(300.29998779296875, 0, 0, 300.29998779296875, 372105.4849243164, 1050)" fill="white">
                    <g>
                        <polygon points="0,0 0,1 .5,1" transform="translate(0,-1) rotate(18)"/>
                        <polygon points="0,0 0,1 .5,1" transform="matrix(-0.9510565162951535, 0.3090169943749474, 0.3090169943749474, 0.9510565162951535, 0, -1)"/>
                    </g>
                    <g transform="matrix(0.30901699437494745, 0.9510565162951535, -0.9510565162951535, 0.30901699437494745, 0, 0)">
                        <polygon points="0,0 0,1 .5,1" transform="translate(0,-1) rotate(18)"/>
                        <polygon points="0,0 0,1 .5,1" transform="matrix(-0.9510565162951535, 0.3090169943749474, 0.3090169943749474, 0.9510565162951535, 0, -1)"/>
                    </g>
                    <g transform="matrix(0.30901699437494745, -0.9510565162951535, 0.9510565162951535, 0.30901699437494745, 0, 0)">
                        <polygon points="0,0 0,1 .5,1" transform="translate(0,-1) rotate(18)"/>
                        <polygon points="0,0 0,1 .5,1" transform="matrix(-0.9510565162951535, 0.3090169943749474, 0.3090169943749474, 0.9510565162951535, 0, -1)"/>
                    </g>
                    <g transform="matrix(-0.8090169943749473, 0.5877852522924732, -0.5877852522924732, -0.8090169943749473, 0, 0)">
                        <polygon points="0,0 0,1 .5,1" transform="translate(0,-1) rotate(18)"/>
                        <polygon points="0,0 0,1 .5,1" transform="matrix(-0.9510565162951535, 0.3090169943749474, 0.3090169943749474, 0.9510565162951535, 0, -1)"/>
                    </g>
                    <g transform="matrix(-0.8090169943749473, -0.5877852522924732, 0.5877852522924732, -0.8090169943749473, 0, 0)">
                        <polygon points="0,0 0,1 .5,1" transform="translate(0,-1) rotate(18)"/>
                        <polygon points="0,0 0,1 .5,1" transform="matrix(-0.9510565162951535, 0.3090169943749474, 0.3090169943749474, 0.9510565162951535, 0, -1)"/>
                    </g>
                </g>
                <g id="star 3 even row" transform="matrix(300.29998779296875, 0, 0, 300.29998779296875, 742975.9698486328, 1050)" fill="white">
                    <g>
                        <polygon points="0,0 0,1 .5,1" transform="translate(0,-1) rotate(18)"/>
                        <polygon points="0,0 0,1 .5,1" transform="matrix(-0.9510565162951535, 0.3090169943749474, 0.3090169943749474, 0.9510565162951535, 0, -1)"/>
                    </g>
                    <g transform="matrix(0.30901699437494745, 0.9510565162951535, -0.9510565162951535, 0.30901699437494745, 0, 0)">
                        <polygon points="0,0 0,1 .5,1" transform="translate(0,-1) rotate(18)"/>
                        <polygon points="0,0 0,1 .5,1" transform="matrix(-0.9510565162951535, 0.3090169943749474, 0.3090169943749474, 0.9510565162951535, 0, -1)"/>
                    </g>
                    <g transform="matrix(0.30901699437494745, -0.9510565162951535, 0.9510565162951535, 0.30901699437494745, 0, 0)">
                        <polygon points="0,0 0,1 .5,1" transform="translate(0,-1) rotate(18)"/>
                        <polygon points="0,0 0,1 .5,1" transform="matrix(-0.9510565162951535, 0.3090169943749474, 0.3090169943749474, 0.9510565162951535, 0, -1)"/>
                    </g>
                    <g transform="matrix(-0.8090169943749473, 0.5877852522924732, -0.5877852522924732, -0.8090169943749473, 0, 0)">
                        <polygon points="0,0 0,1 .5,1" transform="translate(0,-1) rotate(18)"/>
                        <polygon points="0,0 0,1 .5,1" transform="matrix(-0.9510565162951535, 0.3090169943749474, 0.3090169943749474, 0.9510565162951535, 0, -1)"/>
                    </g>
                    <g transform="matrix(-0.8090169943749473, -0.5877852522924732, 0.5877852522924732, -0.8090169943749473, 0, 0)">
                        <polygon points="0,0 0,1 .5,1" transform="translate(0,-1) rotate(18)"/>
                        <polygon points="0,0 0,1 .5,1" transform="matrix(-0.9510565162951535, 0.3090169943749474, 0.3090169943749474, 0.9510565162951535, 0, -1)"/>
                    </g>
                </g>
                <g id="star 4 even row" transform="matrix(300.29998779296875, 0, 0, 300.29998779296875, 1113846.4547729492, 1050)" fill="white">
                    <g>
                        <polygon points="0,0 0,1 .5,1" transform="translate(0,-1) rotate(18)"/>
                        <polygon points="0,0 0,1 .5,1" transform="matrix(-0.9510565162951535, 0.3090169943749474, 0.3090169943749474, 0.9510565162951535, 0, -1)"/>
                    </g>
                    <g transform="matrix(0.30901699437494745, 0.9510565162951535, -0.9510565162951535, 0.30901699437494745, 0, 0)">
                        <polygon points="0,0 0,1 .5,1" transform="translate(0,-1) rotate(18)"/>
                        <polygon points="0,0 0,1 .5,1" transform="matrix(-0.9510565162951535, 0.3090169943749474, 0.3090169943749474, 0.9510565162951535, 0, -1)"/>
                    </g>
                    <g transform="matrix(0.30901699437494745, -0.9510565162951535, 0.9510565162951535, 0.30901699437494745, 0, 0)">
                        <polygon points="0,0 0,1 .5,1" transform="translate(0,-1) rotate(18)"/>
                        <polygon points="0,0 0,1 .5,1" transform="matrix(-0.9510565162951535, 0.3090169943749474, 0.3090169943749474, 0.9510565162951535, 0, -1)"/>
                    </g>
                    <g transform="matrix(-0.8090169943749473, 0.5877852522924732, -0.5877852522924732, -0.8090169943749473, 0, 0)">
                        <polygon points="0,0 0,1 .5,1" transform="translate(0,-1) rotate(18)"/>
                        <polygon points="0,0 0,1 .5,1" transform="matrix(-0.9510565162951535, 0.3090169943749474, 0.3090169943749474, 0.9510565162951535, 0, -1)"/>
                    </g>
                    <g transform="matrix(-0.8090169943749473, -0.5877852522924732, 0.5877852522924732, -0.8090169943749473, 0, 0)">
                        <polygon points="0,0 0,1 .5,1" transform="translate(0,-1) rotate(18)"/>
                        <polygon points="0,0 0,1 .5,1" transform="matrix(-0.9510565162951535, 0.3090169943749474, 0.3090169943749474, 0.9510565162951535, 0, -1)"/>
                    </g>
                </g>
                <g id="star 5 even row" transform="matrix(300.29998779296875, 0, 0, 300.29998779296875, 1484716.9396972656, 1050)" fill="white">
                    <g>
                        <polygon points="0,0 0,1 .5,1" transform="translate(0,-1) rotate(18)"/>
                        <polygon points="0,0 0,1 .5,1" transform="matrix(-0.9510565162951535, 0.3090169943749474, 0.3090169943749474, 0.9510565162951535, 0, -1)"/>
                    </g>
                    <g transform="matrix(0.30901699437494745, 0.9510565162951535, -0.9510565162951535, 0.30901699437494745, 0, 0)">
                        <polygon points="0,0 0,1 .5,1" transform="translate(0,-1) rotate(18)"/>
                        <polygon points="0,0 0,1 .5,1" transform="matrix(-0.9510565162951535, 0.3090169943749474, 0.3090169943749474, 0.9510565162951535, 0, -1)"/>
                    </g>
                    <g transform="matrix(0.30901699437494745, -0.9510565162951535, 0.9510565162951535, 0.30901699437494745, 0, 0)">
                        <polygon points="0,0 0,1 .5,1" transform="translate(0,-1) rotate(18)"/>
                        <polygon points="0,0 0,1 .5,1" transform="matrix(-0.9510565162951535, 0.3090169943749474, 0.3090169943749474, 0.9510565162951535, 0, -1)"/>
                    </g>
                    <g transform="matrix(-0.8090169943749473, 0.5877852522924732, -0.5877852522924732, -0.8090169943749473, 0, 0)">
                        <polygon points="0,0 0,1 .5,1" transform="translate(0,-1) rotate(18)"/>
                        <polygon points="0,0 0,1 .5,1" transform="matrix(-0.9510565162951535, 0.3090169943749474, 0.3090169943749474, 0.9510565162951535, 0, -1)"/>
                    </g>
                    <g transform="matrix(-0.8090169943749473, -0.5877852522924732, 0.5877852522924732, -0.8090169943749473, 0, 0)">
                        <polygon points="0,0 0,1 .5,1" transform="translate(0,-1) rotate(18)"/>
                        <polygon points="0,0 0,1 .5,1" transform="matrix(-0.9510565162951535, 0.3090169943749474, 0.3090169943749474, 0.9510565162951535, 0, -1)"/>
                    </g>
                </g>
            </g>
            <g id="odd_star_row">
                <g id="last 5 stars odd row" transform="matrix(1, 0, 0, 1, 617.5, -525)">
                    <g transform="matrix(300.29998779296875, 0, 0, 300.29998779296875, 1235, 1050)" fill="white">
                        <g>
                            <polygon points="0,0 0,1 .5,1" transform="translate(0,-1) rotate(18)"/>
                            <polygon points="0,0 0,1 .5,1" transform="matrix(-0.9510565162951535, 0.3090169943749474, 0.3090169943749474, 0.9510565162951535, 0, -1)"/>
                        </g>
                        <g transform="matrix(0.30901699437494745, 0.9510565162951535, -0.9510565162951535, 0.30901699437494745, 0, 0)">
                            <polygon points="0,0 0,1 .5,1" transform="translate(0,-1) rotate(18)"/>
                            <polygon points="0,0 0,1 .5,1" transform="matrix(-0.9510565162951535, 0.3090169943749474, 0.3090169943749474, 0.9510565162951535, 0, -1)"/>
                        </g>
                        <g transform="matrix(0.30901699437494745, -0.9510565162951535, 0.9510565162951535, 0.30901699437494745, 0, 0)">
                            <polygon points="0,0 0,1 .5,1" transform="translate(0,-1) rotate(18)"/>
                            <polygon points="0,0 0,1 .5,1" transform="matrix(-0.9510565162951535, 0.3090169943749474, 0.3090169943749474, 0.9510565162951535, 0, -1)"/>
                        </g>
                        <g transform="matrix(-0.8090169943749473, 0.5877852522924732, -0.5877852522924732, -0.8090169943749473, 0, 0)">
                            <polygon points="0,0 0,1 .5,1" transform="translate(0,-1) rotate(18)"/>
                            <polygon points="0,0 0,1 .5,1" transform="matrix(-0.9510565162951535, 0.3090169943749474, 0.3090169943749474, 0.9510565162951535, 0, -1)"/>
                        </g>
                        <g transform="matrix(-0.8090169943749473, -0.5877852522924732, 0.5877852522924732, -0.8090169943749473, 0, 0)">
                            <polygon points="0,0 0,1 .5,1" transform="translate(0,-1) rotate(18)"/>
                            <polygon points="0,0 0,1 .5,1" transform="matrix(-0.9510565162951535, 0.3090169943749474, 0.3090169943749474, 0.9510565162951535, 0, -1)"/>
                        </g>
                    </g>
                    <g transform="matrix(300.29998779296875, 0, 0, 300.29998779296875, 372105.4849243164, 1050)" fill="white">
                        <g>
                            <polygon points="0,0 0,1 .5,1" transform="translate(0,-1) rotate(18)"/>
                            <polygon points="0,0 0,1 .5,1" transform="matrix(-0.9510565162951535, 0.3090169943749474, 0.3090169943749474, 0.9510565162951535, 0, -1)"/>
                        </g>
                        <g transform="matrix(0.30901699437494745, 0.9510565162951535, -0.9510565162951535, 0.30901699437494745, 0, 0)">
                            <polygon points="0,0 0,1 .5,1" transform="translate(0,-1) rotate(18)"/>
                            <polygon points="0,0 0,1 .5,1" transform="matrix(-0.9510565162951535, 0.3090169943749474, 0.3090169943749474, 0.9510565162951535, 0, -1)"/>
                        </g>
                        <g transform="matrix(0.30901699437494745, -0.9510565162951535, 0.9510565162951535, 0.30901699437494745, 0, 0)">
                            <polygon points="0,0 0,1 .5,1" transform="translate(0,-1) rotate(18)"/>
                            <polygon points="0,0 0,1 .5,1" transform="matrix(-0.9510565162951535, 0.3090169943749474, 0.3090169943749474, 0.9510565162951535, 0, -1)"/>
                        </g>
                        <g transform="matrix(-0.8090169943749473, 0.5877852522924732, -0.5877852522924732, -0.8090169943749473, 0, 0)">
                            <polygon points="0,0 0,1 .5,1" transform="translate(0,-1) rotate(18)"/>
                            <polygon points="0,0 0,1 .5,1" transform="matrix(-0.9510565162951535, 0.3090169943749474, 0.3090169943749474, 0.9510565162951535, 0, -1)"/>
                        </g>
                        <g transform="matrix(-0.8090169943749473, -0.5877852522924732, 0.5877852522924732, -0.8090169943749473, 0, 0)">
                            <polygon points="0,0 0,1 .5,1" transform="translate(0,-1) rotate(18)"/>
                            <polygon points="0,0 0,1 .5,1" transform="matrix(-0.9510565162951535, 0.3090169943749474, 0.3090169943749474, 0.9510565162951535, 0, -1)"/>
                        </g>
                    </g>
                    <g transform="matrix(300.29998779296875, 0, 0, 300.29998779296875, 742975.9698486328, 1050)" fill="white">
                        <g>
                            <polygon points="0,0 0,1 .5,1" transform="translate(0,-1) rotate(18)"/>
                            <polygon points="0,0 0,1 .5,1" transform="matrix(-0.9510565162951535, 0.3090169943749474, 0.3090169943749474, 0.9510565162951535, 0, -1)"/>
                        </g>
                        <g transform="matrix(0.30901699437494745, 0.9510565162951535, -0.9510565162951535, 0.30901699437494745, 0, 0)">
                            <polygon points="0,0 0,1 .5,1" transform="translate(0,-1) rotate(18)"/>
                            <polygon points="0,0 0,1 .5,1" transform="matrix(-0.9510565162951535, 0.3090169943749474, 0.3090169943749474, 0.9510565162951535, 0, -1)"/>
                        </g>
                        <g transform="matrix(0.30901699437494745, -0.9510565162951535, 0.9510565162951535, 0.30901699437494745, 0, 0)">
                            <polygon points="0,0 0,1 .5,1" transform="translate(0,-1) rotate(18)"/>
                            <polygon points="0,0 0,1 .5,1" transform="matrix(-0.9510565162951535, 0.3090169943749474, 0.3090169943749474, 0.9510565162951535, 0, -1)"/>
                        </g>
                        <g transform="matrix(-0.8090169943749473, 0.5877852522924732, -0.5877852522924732, -0.8090169943749473, 0, 0)">
                            <polygon points="0,0 0,1 .5,1" transform="translate(0,-1) rotate(18)"/>
                            <polygon points="0,0 0,1 .5,1" transform="matrix(-0.9510565162951535, 0.3090169943749474, 0.3090169943749474, 0.9510565162951535, 0, -1)"/>
                        </g>
                        <g transform="matrix(-0.8090169943749473, -0.5877852522924732, 0.5877852522924732, -0.8090169943749473, 0, 0)">
                            <polygon points="0,0 0,1 .5,1" transform="translate(0,-1) rotate(18)"/>
                            <polygon points="0,0 0,1 .5,1" transform="matrix(-0.9510565162951535, 0.3090169943749474, 0.3090169943749474, 0.9510565162951535, 0, -1)"/>
                        </g>
                    </g>
                    <g transform="matrix(300.29998779296875, 0, 0, 300.29998779296875, 1113846.4547729492, 1050)" fill="white">
                        <g>
                            <polygon points="0,0 0,1 .5,1" transform="translate(0,-1) rotate(18)"/>
                            <polygon points="0,0 0,1 .5,1" transform="matrix(-0.9510565162951535, 0.3090169943749474, 0.3090169943749474, 0.9510565162951535, 0, -1)"/>
                        </g>
                        <g transform="matrix(0.30901699437494745, 0.9510565162951535, -0.9510565162951535, 0.30901699437494745, 0, 0)">
                            <polygon points="0,0 0,1 .5,1" transform="translate(0,-1) rotate(18)"/>
                            <polygon points="0,0 0,1 .5,1" transform="matrix(-0.9510565162951535, 0.3090169943749474, 0.3090169943749474, 0.9510565162951535, 0, -1)"/>
                        </g>
                        <g transform="matrix(0.30901699437494745, -0.9510565162951535, 0.9510565162951535, 0.30901699437494745, 0, 0)">
                            <polygon points="0,0 0,1 .5,1" transform="translate(0,-1) rotate(18)"/>
                            <polygon points="0,0 0,1 .5,1" transform="matrix(-0.9510565162951535, 0.3090169943749474, 0.3090169943749474, 0.9510565162951535, 0, -1)"/>
                        </g>
                        <g transform="matrix(-0.8090169943749473, 0.5877852522924732, -0.5877852522924732, -0.8090169943749473, 0, 0)">
                            <polygon points="0,0 0,1 .5,1" transform="translate(0,-1) rotate(18)"/>
                            <polygon points="0,0 0,1 .5,1" transform="matrix(-0.9510565162951535, 0.3090169943749474, 0.3090169943749474, 0.9510565162951535, 0, -1)"/>
                        </g>
                        <g transform="matrix(-0.8090169943749473, -0.5877852522924732, 0.5877852522924732, -0.8090169943749473, 0, 0)">
                            <polygon points="0,0 0,1 .5,1" transform="translate(0,-1) rotate(18)"/>
                            <polygon points="0,0 0,1 .5,1" transform="matrix(-0.9510565162951535, 0.3090169943749474, 0.3090169943749474, 0.9510565162951535, 0, -1)"/>
                        </g>
                    </g>
                    <g transform="matrix(300.29998779296875, 0, 0, 300.29998779296875, 1484716.9396972656, 1050)" fill="white">
                        <g>
                            <polygon points="0,0 0,1 .5,1" transform="translate(0,-1) rotate(18)"/>
                            <polygon points="0,0 0,1 .5,1" transform="matrix(-0.9510565162951535, 0.3090169943749474, 0.3090169943749474, 0.9510565162951535, 0, -1)"/>
                        </g>
                        <g transform="matrix(0.30901699437494745, 0.9510565162951535, -0.9510565162951535, 0.30901699437494745, 0, 0)">
                            <polygon points="0,0 0,1 .5,1" transform="translate(0,-1) rotate(18)"/>
                            <polygon points="0,0 0,1 .5,1" transform="matrix(-0.9510565162951535, 0.3090169943749474, 0.3090169943749474, 0.9510565162951535, 0, -1)"/>
                        </g>
                        <g transform="matrix(0.30901699437494745, -0.9510565162951535, 0.9510565162951535, 0.30901699437494745, 0, 0)">
                            <polygon points="0,0 0,1 .5,1" transform="translate(0,-1) rotate(18)"/>
                            <polygon points="0,0 0,1 .5,1" transform="matrix(-0.9510565162951535, 0.3090169943749474, 0.3090169943749474, 0.9510565162951535, 0, -1)"/>
                        </g>
                        <g transform="matrix(-0.8090169943749473, 0.5877852522924732, -0.5877852522924732, -0.8090169943749473, 0, 0)">
                            <polygon points="0,0 0,1 .5,1" transform="translate(0,-1) rotate(18)"/>
                            <polygon points="0,0 0,1 .5,1" transform="matrix(-0.9510565162951535, 0.3090169943749474, 0.3090169943749474, 0.9510565162951535, 0, -1)"/>
                        </g>
                        <g transform="matrix(-0.8090169943749473, -0.5877852522924732, 0.5877852522924732, -0.8090169943749473, 0, 0)">
                            <polygon points="0,0 0,1 .5,1" transform="translate(0,-1) rotate(18)"/>
                            <polygon points="0,0 0,1 .5,1" transform="matrix(-0.9510565162951535, 0.3090169943749474, 0.3090169943749474, 0.9510565162951535, 0, -1)"/>
                        </g>
                    </g>
                </g>
                <g id="star 1 odd row" transform="matrix(300.29998779296875, 0, 0, 300.29998779296875, -184200.2424621582, -156607.4935913086)" fill="white">
                    <g>
                        <polygon points="0,0 0,1 .5,1" transform="translate(0,-1) rotate(18)"/>
                        <polygon points="0,0 0,1 .5,1" transform="matrix(-0.9510565162951535, 0.3090169943749474, 0.3090169943749474, 0.9510565162951535, 0, -1)"/>
                    </g>
                    <g transform="matrix(0.30901699437494745, 0.9510565162951535, -0.9510565162951535, 0.30901699437494745, 0, 0)">
                        <polygon points="0,0 0,1 .5,1" transform="translate(0,-1) rotate(18)"/>
                        <polygon points="0,0 0,1 .5,1" transform="matrix(-0.9510565162951535, 0.3090169943749474, 0.3090169943749474, 0.9510565162951535, 0, -1)"/>
                    </g>
                    <g transform="matrix(0.30901699437494745, -0.9510565162951535, 0.9510565162951535, 0.30901699437494745, 0, 0)">
                        <polygon points="0,0 0,1 .5,1" transform="translate(0,-1) rotate(18)"/>
                        <polygon points="0,0 0,1 .5,1" transform="matrix(-0.9510565162951535, 0.3090169943749474, 0.3090169943749474, 0.9510565162951535, 0, -1)"/>
                    </g>
                    <g transform="matrix(-0.8090169943749473, 0.5877852522924732, -0.5877852522924732, -0.8090169943749473, 0, 0)">
                        <polygon points="0,0 0,1 .5,1" transform="translate(0,-1) rotate(18)"/>
                        <polygon points="0,0 0,1 .5,1" transform="matrix(-0.9510565162951535, 0.3090169943749474, 0.3090169943749474, 0.9510565162951535, 0, -1)"/>
                    </g>
                    <g transform="matrix(-0.8090169943749473, -0.5877852522924732, 0.5877852522924732, -0.8090169943749473, 0, 0)">
                        <polygon points="0,0 0,1 .5,1" transform="translate(0,-1) rotate(18)"/>
                        <polygon points="0,0 0,1 .5,1" transform="matrix(-0.9510565162951535, 0.3090169943749474, 0.3090169943749474, 0.9510565162951535, 0, -1)"/>
                    </g>
                </g>
            </g>
            <clipPath clipPathUnits="userSpaceOnUse" id="clipPath23203">
                <path style="opacity:1;fill:white;fill-opacity:1;fill-rule:evenodd;stroke:none;stroke-width:41.7857132;stroke-linecap:butt;stroke-linejoin:miter;stroke-miterlimit:4;stroke-dasharray:none;stroke-opacity:1" d="M -0.0003,0 L -0.0003,9749.9998 L 18525,0.001 L -0.0003,0 z " id="path21313" clip-path="none"/>
            </clipPath>
            <clipPath id="clip-0">
                <path d="M -0.948 -0.947 L -0.948 30.253 L 51.052 30.253 L 51.052 -0.947 L -0.948 -0.947 Z" fill="#012169" style="stroke-width: 1.04;"/>
            </clipPath>
        </defs>
        <g id="svg2" transform="matrix(0.92857, 0, 0, 0.92857, -229.824875, -67.220802)" style="">
            <g transform="matrix(25.576469, 0, 0, 22.434494, 271.776154, 93.659645)">
                <path d="M -0.949 -0.948 L -0.949 30.254 L 51.052 30.254 L 51.052 -0.948 L -0.949 -0.948 Z" fill="#012169"/>
                <path d="M -0.948 -0.947 L 51.052 30.253 M 51.052 -0.947 L -0.948 30.253" stroke-width="6" style="clip-path: url(&quot;#clip-0&quot;); fill: rgb(255, 255, 255); stroke: rgb(255, 255, 255); stroke-width: 6.24;"/>
                <path d="M -0.949 -0.948 L 51.052 30.254 M 51.052 -0.948 L -0.949 30.254" clip-path="url(#clip-2)" stroke="#C8102E" stroke-width="4"/>
                <path d="M -0.948 9.453 L 19.852 9.453 L 19.852 -0.947 L 30.252 -0.947 L 30.252 9.453 L 51.052 9.453 L 51.052 19.853 L 30.252 19.853 L 30.252 30.253 L 19.852 30.253 L 19.852 19.853 L -0.948 19.853 L -0.948 9.453 Z" style="stroke-width: 0px; fill: rgb(255, 255, 255);" stroke="#FFF"/>
                <path d="M -0.948 11.533 L 21.932 11.533 L 21.932 -0.947 L 28.172 -0.947 L 28.172 11.533 L 51.052 11.533 L 51.052 17.773 L 28.172 17.773 L 28.172 30.253 L 21.932 30.253 L 21.932 17.773 L -0.948 17.773 L -0.948 11.533 Z" style="stroke-width: 0px; fill: rgb(200, 16, 46);" stroke="#FFF"/>
            </g>
            <g id="g14785" clip-path="url(#clipPath23203)" style="stroke: none;" transform="matrix(0.071795, 0, 0, 0.071794, 247.504196, 72.391869)">
                <rect style="fill: rgb(191, 10, 48); stroke: none; visibility: hidden;" id="rect14787" height="9750" width="18525" y="0" x="0"/>
                <g transform="matrix(14.999994, 0, 0, 15.000202, -0.001568, -0.001762)">
                    <path d="M 0 0 L 1235 0 L 1235 650.002 L 0 650.002" fill="#b31942" style="stroke-width: 0.167;"/>
                    <path d="M 0 75 L 1235 75 M 1235 175 L 0 175 M 0 275.001 L 1235 275.001 M 1235 375.001 L 0 375.001 M 0 475.001 L 1235 475.001 M 1235 575.001 L 0 575.001" stroke="#FFF" stroke-width="300" style="stroke-width: 50;"/>
                    <path d="M 0 0 L 494.001 0 L 494.001 350.001 L 0 350.001" fill="#0a3161" style="stroke-width: 0.167;"/>
                    <g fill="#FFF" transform="matrix(0.166667, 0, 0, 0.166667, 0, 0)">
                        <g id="group-1">
                            <g id="group-2">
                                <g id="group-3">
                                    <g id="group-4">
                                        <path id="path-1" d="M247,90 317.534230,307.082039 132.873218,172.917961H361.126782L176.465770,307.082039z"/>
                                        <path d="M247,90 317.534230,307.082039 132.873218,172.917961H361.126782L176.465770,307.082039z" transform="matrix(1, 0, 0, 1, 0, 420)"/>
                                        <path d="M247,90 317.534230,307.082039 132.873218,172.917961H361.126782L176.465770,307.082039z" transform="matrix(1, 0, 0, 1, 0, 840)"/>
                                        <path d="M247,90 317.534230,307.082039 132.873218,172.917961H361.126782L176.465770,307.082039z" transform="matrix(1, 0, 0, 1, 0, 1260)"/>
                                    </g>
                                    <path d="M247,90 317.534230,307.082039 132.873218,172.917961H361.126782L176.465770,307.082039z" transform="matrix(1, 0, 0, 1, 0, 1680)"/>
                                </g>
                                <g transform="matrix(1, 0, 0, 1, 247, 210)">
                                    <path d="M247,90 317.534230,307.082039 132.873218,172.917961H361.126782L176.465770,307.082039z"/>
                                    <path d="M247,90 317.534230,307.082039 132.873218,172.917961H361.126782L176.465770,307.082039z" transform="matrix(1, 0, 0, 1, 0, 420)"/>
                                    <path d="M247,90 317.534230,307.082039 132.873218,172.917961H361.126782L176.465770,307.082039z" transform="matrix(1, 0, 0, 1, 0, 840)"/>
                                    <path d="M247,90 317.534230,307.082039 132.873218,172.917961H361.126782L176.465770,307.082039z" transform="matrix(1, 0, 0, 1, 0, 1260)"/>
                                </g>
                            </g>
                            <g transform="matrix(1, 0, 0, 1, 494, 0)">
                                <g>
                                    <g>
                                        <path d="M247,90 317.534230,307.082039 132.873218,172.917961H361.126782L176.465770,307.082039z"/>
                                        <path d="M247,90 317.534230,307.082039 132.873218,172.917961H361.126782L176.465770,307.082039z" transform="matrix(1, 0, 0, 1, 0, 420)"/>
                                        <path d="M247,90 317.534230,307.082039 132.873218,172.917961H361.126782L176.465770,307.082039z" transform="matrix(1, 0, 0, 1, 0, 840)"/>
                                        <path d="M247,90 317.534230,307.082039 132.873218,172.917961H361.126782L176.465770,307.082039z" transform="matrix(1, 0, 0, 1, 0, 1260)"/>
                                    </g>
                                    <path d="M247,90 317.534230,307.082039 132.873218,172.917961H361.126782L176.465770,307.082039z" transform="matrix(1, 0, 0, 1, 0, 1680)"/>
                                </g>
                                <g transform="matrix(1, 0, 0, 1, 247, 210)">
                                    <path d="M247,90 317.534230,307.082039 132.873218,172.917961H361.126782L176.465770,307.082039z"/>
                                    <path d="M247,90 317.534230,307.082039 132.873218,172.917961H361.126782L176.465770,307.082039z" transform="matrix(1, 0, 0, 1, 0, 420)"/>
                                    <path d="M247,90 317.534230,307.082039 132.873218,172.917961H361.126782L176.465770,307.082039z" transform="matrix(1, 0, 0, 1, 0, 840)"/>
                                    <path d="M247,90 317.534230,307.082039 132.873218,172.917961H361.126782L176.465770,307.082039z" transform="matrix(1, 0, 0, 1, 0, 1260)"/>
                                </g>
                            </g>
                        </g>
                        <g transform="matrix(1, 0, 0, 1, 988, 0)">
                            <g>
                                <g>
                                    <g>
                                        <path d="M247,90 317.534230,307.082039 132.873218,172.917961H361.126782L176.465770,307.082039z"/>
                                        <path d="M247,90 317.534230,307.082039 132.873218,172.917961H361.126782L176.465770,307.082039z" transform="matrix(1, 0, 0, 1, 0, 420)"/>
                                        <path d="M247,90 317.534230,307.082039 132.873218,172.917961H361.126782L176.465770,307.082039z" transform="matrix(1, 0, 0, 1, 0, 840)"/>
                                        <path d="M247,90 317.534230,307.082039 132.873218,172.917961H361.126782L176.465770,307.082039z" transform="matrix(1, 0, 0, 1, 0, 1260)"/>
                                    </g>
                                    <path d="M247,90 317.534230,307.082039 132.873218,172.917961H361.126782L176.465770,307.082039z" transform="matrix(1, 0, 0, 1, 0, 1680)"/>
                                </g>
                                <g transform="matrix(1, 0, 0, 1, 247, 210)">
                                    <path d="M247,90 317.534230,307.082039 132.873218,172.917961H361.126782L176.465770,307.082039z"/>
                                    <path d="M247,90 317.534230,307.082039 132.873218,172.917961H361.126782L176.465770,307.082039z" transform="matrix(1, 0, 0, 1, 0, 420)"/>
                                    <path d="M247,90 317.534230,307.082039 132.873218,172.917961H361.126782L176.465770,307.082039z" transform="matrix(1, 0, 0, 1, 0, 840)"/>
                                    <path d="M247,90 317.534230,307.082039 132.873218,172.917961H361.126782L176.465770,307.082039z" transform="matrix(1, 0, 0, 1, 0, 1260)"/>
                                </g>
                            </g>
                            <g transform="matrix(1, 0, 0, 1, 494, 0)">
                                <g>
                                    <g>
                                        <path d="M247,90 317.534230,307.082039 132.873218,172.917961H361.126782L176.465770,307.082039z"/>
                                        <path d="M247,90 317.534230,307.082039 132.873218,172.917961H361.126782L176.465770,307.082039z" transform="matrix(1, 0, 0, 1, 0, 420)"/>
                                        <path d="M247,90 317.534230,307.082039 132.873218,172.917961H361.126782L176.465770,307.082039z" transform="matrix(1, 0, 0, 1, 0, 840)"/>
                                        <path d="M247,90 317.534230,307.082039 132.873218,172.917961H361.126782L176.465770,307.082039z" transform="matrix(1, 0, 0, 1, 0, 1260)"/>
                                    </g>
                                    <path d="M247,90 317.534230,307.082039 132.873218,172.917961H361.126782L176.465770,307.082039z" transform="matrix(1, 0, 0, 1, 0, 1680)"/>
                                </g>
                                <g transform="matrix(1, 0, 0, 1, 247, 210)">
                                    <path d="M247,90 317.534230,307.082039 132.873218,172.917961H361.126782L176.465770,307.082039z"/>
                                    <path d="M247,90 317.534230,307.082039 132.873218,172.917961H361.126782L176.465770,307.082039z" transform="matrix(1, 0, 0, 1, 0, 420)"/>
                                    <path d="M247,90 317.534230,307.082039 132.873218,172.917961H361.126782L176.465770,307.082039z" transform="matrix(1, 0, 0, 1, 0, 840)"/>
                                    <path d="M247,90 317.534230,307.082039 132.873218,172.917961H361.126782L176.465770,307.082039z" transform="matrix(1, 0, 0, 1, 0, 1260)"/>
                                </g>
                            </g>
                        </g>
                        <g transform="matrix(1, 0, 0, 1, 1976, 0)">
                            <g>
                                <g>
                                    <path d="M247,90 317.534230,307.082039 132.873218,172.917961H361.126782L176.465770,307.082039z"/>
                                    <path d="M247,90 317.534230,307.082039 132.873218,172.917961H361.126782L176.465770,307.082039z" transform="matrix(1, 0, 0, 1, 0, 420)"/>
                                    <path d="M247,90 317.534230,307.082039 132.873218,172.917961H361.126782L176.465770,307.082039z" transform="matrix(1, 0, 0, 1, 0, 840)"/>
                                    <path d="M247,90 317.534230,307.082039 132.873218,172.917961H361.126782L176.465770,307.082039z" transform="matrix(1, 0, 0, 1, 0, 1260)"/>
                                </g>
                                <path d="M247,90 317.534230,307.082039 132.873218,172.917961H361.126782L176.465770,307.082039z" transform="matrix(1, 0, 0, 1, 0, 1680)"/>
                            </g>
                            <g transform="matrix(1, 0, 0, 1, 247, 210)">
                                <path d="M247,90 317.534230,307.082039 132.873218,172.917961H361.126782L176.465770,307.082039z"/>
                                <path d="M247,90 317.534230,307.082039 132.873218,172.917961H361.126782L176.465770,307.082039z" transform="matrix(1, 0, 0, 1, 0, 420)"/>
                                <path d="M247,90 317.534230,307.082039 132.873218,172.917961H361.126782L176.465770,307.082039z" transform="matrix(1, 0, 0, 1, 0, 840)"/>
                                <path d="M247,90 317.534230,307.082039 132.873218,172.917961H361.126782L176.465770,307.082039z" transform="matrix(1, 0, 0, 1, 0, 1260)"/>
                            </g>
                        </g>
                        <g transform="matrix(1, 0, 0, 1, 2470, 0)">
                            <g>
                                <path d="M247,90 317.534230,307.082039 132.873218,172.917961H361.126782L176.465770,307.082039z"/>
                                <path d="M247,90 317.534230,307.082039 132.873218,172.917961H361.126782L176.465770,307.082039z" transform="matrix(1, 0, 0, 1, 0, 420)"/>
                                <path d="M247,90 317.534230,307.082039 132.873218,172.917961H361.126782L176.465770,307.082039z" transform="matrix(1, 0, 0, 1, 0, 840)"/>
                                <path d="M247,90 317.534230,307.082039 132.873218,172.917961H361.126782L176.465770,307.082039z" transform="matrix(1, 0, 0, 1, 0, 1260)"/>
                            </g>
                            <path d="M247,90 317.534230,307.082039 132.873218,172.917961H361.126782L176.465770,307.082039z" transform="matrix(1, 0, 0, 1, 0, 1680)"/>
                        </g>
                    </g>
                </g>
            </g>
            <clipPath id="clip-2">
                <path d="M 25.053 14.653 L 51.052 14.653 L 51.052 30.254 L 25.053 14.653 Z M 25.053 14.653 L 25.053 30.254 L -0.949 30.254 L 25.053 14.653 Z M 25.053 14.653 L -0.949 14.653 L -0.949 -0.948 L 25.053 14.653 Z M 25.053 14.653 L 25.053 -0.948 L 51.052 -0.948 L 25.053 14.653 Z"/>
            </clipPath>
        </g>
  </symbol>
</svg>
